<?xml version="1.0" standalone="no"?>
<!DOCTYPE svg PUBLIC "-//W3C//DTD SVG 20010904//EN"
 "http://www.w3.org/TR/2001/REC-SVG-20010904/DTD/svg10.dtd">
<svg version="1.0" xmlns="http://www.w3.org/2000/svg"
 width="260.000000pt" height="260.000000pt" viewBox="0 0 260.000000 260.000000"
 preserveAspectRatio="xMidYMid meet">
<metadata>
Created by potrace 1.14, written by Peter Selinger 2001-2017
</metadata>
<g transform="translate(0.000000,260.000000) scale(0.100000,-0.100000)"
fill="#000000" stroke="none">
<path d="M1170 2164 c-73 -22 -150 -90 -192 -170 -58 -110 -65 -202 -24 -282
9 -17 12 -32 7 -34 -13 -5 -98 -107 -139 -168 -50 -73 -104 -169 -148 -260
-55 -113 -64 -147 -64 -235 0 -97 0 -99 9 -120 41 -97 56 -124 80 -150 28 -30
36 -36 99 -76 31 -21 46 -57 18 -46 -8 3 -17 3 -20 -1 -4 -3 -16 -7 -28 -9
-44 -7 -128 -95 -120 -125 1 -4 -2 -18 -7 -31 -6 -16 -6 -28 2 -36 8 -8 8 -11
0 -11 -19 0 4 -54 39 -90 16 -18 32 -46 35 -63 2 -18 6 -37 8 -44 2 -7 0 -15
-4 -17 -5 -3 -6 -16 -4 -30 5 -26 -22 -133 -39 -154 -9 -10 103 -12 563 -10
l574 3 2 40 c2 62 3 63 20 20 26 -62 32 -65 137 -65 l96 0 -33 63 c-35 66 -59
122 -62 147 -1 8 -5 25 -9 37 -16 51 -15 65 11 91 55 55 71 148 35 218 -39 76
-113 131 -185 136 -30 3 -34 6 -26 21 5 9 14 17 18 17 13 0 69 120 81 174 41
186 -64 484 -239 679 -95 106 -192 186 -263 218 -24 10 -25 14 -16 38 18 46
23 92 14 156 -7 48 -11 61 -28 86 -33 50 -55 69 -90 78 -4 1 -20 6 -35 10 -17
5 -45 3 -73 -5z"/>
</g>
</svg>
